<svg xmlns="http://www.w3.org/2000/svg" viewBox="0 0 1100 900" role="img"><title>Suivi du cycle et symptômes SOPK</title><rect width="1100" height="900" fill="#F5EDE4"/><circle cx="910" cy="130" r="190" fill="#C4868C" opacity=".18"/><circle cx="170" cy="760" r="220" fill="#6B8F71" opacity=".16"/><rect x="185" y="150" width="730" height="600" rx="42" fill="#FDFAF6" filter="drop-shadow(0 22px 36px rgba(44,36,32,.14))"/><rect x="245" y="225" width="250" height="26" rx="13" fill="#B8860B" opacity=".62"/><g fill="#E8DFD4"><rect x="245" y="315" width="95" height="82" rx="18"/><rect x="365" y="315" width="95" height="82" rx="18"/><rect x="485" y="315" width="95" height="82" rx="18"/><rect x="605" y="315" width="95" height="82" rx="18"/><rect x="725" y="315" width="95" height="82" rx="18"/><rect x="245" y="420" width="95" height="82" rx="18"/><rect x="365" y="420" width="95" height="82" rx="18"/><rect x="485" y="420" width="95" height="82" rx="18"/><rect x="605" y="420" width="95" height="82" rx="18"/><rect x="725" y="420" width="95" height="82" rx="18"/></g><circle cx="414" cy="462" r="22" fill="#C4868C"/><circle cx="534" cy="462" r="22" fill="#C4868C"/><path d="M260 635c115-130 215-118 300 0s175 118 300 0" fill="none" stroke="#6B8F71" stroke-width="14" stroke-linecap="round"/><rect x="245" y="690" width="420" height="18" rx="9" fill="#9C8E82" opacity=".36"/></svg>
